# xmcd
#
# Track frame offsets: 
#        150
#        19544
#        38077
#        59666
#        82907
#        102064
#        123050
#        145172
#        167664
#        185670
#        205062
#        226043
#        244842
#        264431
#        278187
#
# Disc length: 3953 seconds
#
# Revision: 0
# Processed by: cddbd v1.5.2PL0 Copyright (c) Steve Scherf et al.
# Submitted via: ExactAudioCopy v1.0b3
#
DISCID=bf0f6f0f
DTITLE=Kenny Selcer - Don't Forget About Me
DYEAR=2011
DGENRE=Blues
TTITLE0=Don't Forget About Me
TTITLE1=Goin' Home Now
TTITLE2=Massachusetts Morning
TTITLE3=Even To A Shining Star
TTITLE4=Save Yourself
TTITLE5=Colors
TTITLE6=I'm Goin' Back
TTITLE7=I Would Be With You
TTITLE8=In An Instant
TTITLE9=With You
TTITLE10=Colors (reprise)
TTITLE11=Fallen Down
TTITLE12=Say You Will
TTITLE13=Outstanding
TTITLE14=I Would Be With You (reprise)
EXTD=
EXTT0=
EXTT1=
EXTT2=
EXTT3=
EXTT4=
EXTT5=
EXTT6=
EXTT7=
EXTT8=
EXTT9=
EXTT10=
EXTT11=
EXTT12=
EXTT13=
EXTT14=
PLAYORDER=
